<svg xmlns="http://www.w3.org/2000/svg" width="100" height="100" viewBox="0 0 80 80">
    <defs>
        <linearGradient id="SvgjsLinearGradient2806" x1="0" y1="0" x2="0" y2="1">
            <stop id="SvgjsStop2807" stop-color="#905e26" offset="0"></stop>
            <stop id="SvgjsStop2808" stop-color="#f5ec9b" offset="0.5"></stop>
            <stop id="SvgjsStop2809" stop-color="#905e26" offset="1"></stop>
        </linearGradient>
    </defs>
    <path
        d="M40,0L0,40l40,40l40-40L40,0z M9.427,40L40,9.427l12.93,12.93l-4.714,4.714L40,18.857L18.857,40l8.213,8.216 l-4.714,4.714L9.427,40z M51.719,40L40,51.722L28.284,40L40,28.284L51.719,40z M27.07,57.644l4.714-4.714L40,61.143L61.146,40 l-8.216-8.216l4.714-4.714L70.573,40L40,70.573L27.07,57.644z"
        fill="url(#SvgjsLinearGradient2806)" />
</svg>