<svg xmlns="http://www.w3.org/2000/svg" width="304.915625" height="304.915625" viewBox="0 0 312.5 312.5">
    <g transform="matrix(2.9875715273930257,0,0,2.9875715273930257,0.00001862645013371933,0.00001862645013371933)"
        fill="#111111">
        <path xmlns="http://www.w3.org/2000/svg"
            d="M52.3 104.6a52.3 52.3 0 1 1 52.3-52.3 52.4 52.4 0 0 1-52.3 52.3zm0-102.3a50 50 0 1 0 50 50 50 50 0 0 0-50-50z">
        </path>
    </g>
    <g transform="matrix(1.45,0,0,1.45,121,77)" fill="#111111">
        <path xmlns="http://www.w3.org/2000/svg"
            d="M43.184 40.897999999999996 l3.2813 0 c-3.1934 9.4336 -11.338 16.846 -21.24 18.574 c-7.2949 1.0254 -15.527 0.52734 -22.939 0.52734 l4.3945 -19.102 l-3.252 0 l5.6543 -24.609 c5.8594 0 20.684 -0.9082 26.543 1.582 c8.1152 3.4863 10.137 12.363 8.2617 20.273 c-0.14648 0.9375 -0.38086 1.875 -0.70313 2.7539 z M21.387 27.1 l-3.1641 13.799 l3.252 0 l-1.9043 8.2031 c6.3574 0 9.9023 -2.4023 11.865 -8.2031 l-3.252 0 c0.32227 -0.79102 0.55664 -1.7285 0.82031 -2.8418 c1.8164 -7.5879 -0.41016 -10.957 -7.6172 -10.957 z">
        </path>
    </g>

    <g transform="matrix(1.167460667944408,0,0,1.167460667944408,52.21742603300478,177.32539332055592)" fill="#111111">
        <path
            d="M21.12 11.04 q2.44 0.92 4.4 2.96 q4.2 4.24 4.2 10.82 t-4.2 10.86 q-1.96 2.04 -4.4 2.96 q-2.52 1.04 -5.16 1.04 l-11.32 0 q-0.56 0 -0.98 -0.42 t-0.42 -0.98 l0 -2.88 q0 -0.6 0.42 -1.02 t0.98 -0.42 l11.2 0 q3.56 0 5.78 -2.6 t2.22 -6.52 t-2.22 -6.52 t-5.78 -2.6 l-11.2 0 q-0.56 0 -0.98 -0.42 t-0.42 -1.02 l0 -2.88 q0 -0.56 0.42 -0.98 t0.98 -0.42 l11.32 0 q2.64 0 5.16 1.04 z M53.952 33.92 q0.6 0 1 0.42 t0.4 1.02 l0 2.92 q0 0.56 -0.4 0.98 t-1 0.42 l-19.76 0 q-0.56 0 -0.98 -0.42 t-0.42 -0.98 l0 -2.92 q0 -0.6 0.42 -1.02 t0.98 -0.42 l19.76 0 z M34.192 27.72 q-0.56 0 -0.98 -0.42 t-0.42 -0.98 l0 -3 q0 -0.56 0.42 -0.98 t0.98 -0.42 l17.96 0 q0.6 0 1.02 0.42 t0.42 0.98 l0 3 q0 0.56 -0.42 0.98 t-1.02 0.42 l-17.96 0 z M53.952 10 q0.6 0 1 0.42 t0.4 0.98 l0 2.92 q0 0.6 -0.4 1.02 t-1 0.42 l-19.76 0 q-0.56 0 -0.98 -0.42 t-0.42 -1.02 l0 -2.92 q0 -0.56 0.42 -0.98 t0.98 -0.42 l19.76 0 z M83.384 10.64 q0.44 0.6 0.16 1.32 l-10.96 27.08 q-0.16 0.4 -0.52 0.64 t-0.8 0.24 l-3.52 0 q-0.44 0 -0.8 -0.24 t-0.52 -0.64 l-10.96 -27.08 q-0.32 -0.68 0.12 -1.32 t1.16 -0.64 l13.36 0 q0.56 0 0.98 0.42 t0.42 1.02 l0 2.92 q0 0.6 -0.42 1.02 t-0.98 0.42 l-6.72 0 l6.12 15.4 l8.04 -20.32 q0.16 -0.4 0.52 -0.64 t0.8 -0.24 l3.36 0 q0.36 0 0.68 0.18 t0.48 0.46 z M86.65599999999999 20.24 q-0.56 0 -0.98 -0.42 t-0.42 -0.98 l0 -7.44 q0 -0.56 0.42 -0.98 t0.98 -0.42 l3.04 0 q0.6 0 1 0.42 t0.4 0.98 l0 7.44 q0 0.56 -0.4 0.98 t-1 0.42 l-3.04 0 z M108.37599999999999 10 q0.56 0 0.98 0.42 t0.42 0.98 l0 26.88 q0 0.56 -0.42 0.98 t-0.98 0.42 l-3.04 0 q-0.6 0 -1 -0.42 t-0.4 -0.98 l0 -10.56 l-12.84 0 l0 10.56 q0 0.56 -0.4 0.98 t-1 0.42 l-3.04 0 q-0.56 0 -0.98 -0.42 t-0.42 -0.98 l0 -14.96 q0 -0.56 0.42 -0.98 t0.98 -0.42 l17.28 0 l0 -10.52 q0 -0.56 0.4 -0.98 t1 -0.42 l3.04 0 z M118.928 21.88 q0.6 0 1 0.42 t0.4 1.02 l0 14.96 q0 0.56 -0.4 0.98 t-1 0.42 l-3.04 0 q-0.56 0 -0.98 -0.42 t-0.42 -0.98 l0 -14.96 q0 -0.6 0.42 -1.02 t0.98 -0.42 l3.04 0 z M118.928 10 q0.6 0 1 0.42 t0.4 0.98 l0 7.4 q0 0.6 -0.4 1.02 t-1 0.42 l-3.04 0 q-0.56 0 -0.98 -0.42 t-0.42 -1.02 l0 -7.4 q0 -0.56 0.42 -0.98 t0.98 -0.42 l3.04 0 z M150.44 37.4 q0.24 0.28 0.28 0.68 t-0.14 0.76 t-0.52 0.56 t-0.74 0.2 l-3.8 0 q-0.36 0 -0.66 -0.16 t-0.5 -0.44 l-9.56 -13.76 l-3.92 3.68 l0 9.28 q0 0.56 -0.42 0.98 t-0.98 0.42 l-3.04 0 q-0.56 0 -0.98 -0.42 t-0.42 -0.98 l0 -11.12 q0 -0.64 0.44 -1 l16.72 -15.68 q0.4 -0.4 0.96 -0.4 l4.32 0 q0.4 0 0.76 0.24 t0.52 0.64 t0.08 0.82 t-0.4 0.74 l-9.36 8.8 z M126.43999999999998 20.2 q-0.56 0 -0.98 -0.4 t-0.42 -1 l0 -7.4 q0 -0.56 0.42 -0.98 t0.98 -0.42 l3.04 0 q0.56 0 0.98 0.42 t0.42 0.98 l0 7.4 q0 0.6 -0.42 1 t-0.98 0.4 l-3.04 0 z M173.152 33.92 q0.6 0 1 0.42 t0.4 1.02 l0 2.92 q0 0.56 -0.4 0.98 t-1 0.42 l-19.76 0 q-0.56 0 -0.98 -0.42 t-0.42 -0.98 l0 -2.92 q0 -0.6 0.42 -1.02 t0.98 -0.42 l19.76 0 z M153.39199999999997 27.72 q-0.56 0 -0.98 -0.42 t-0.42 -0.98 l0 -3 q0 -0.56 0.42 -0.98 t0.98 -0.42 l17.96 0 q0.6 0 1.02 0.42 t0.42 0.98 l0 3 q0 0.56 -0.42 0.98 t-1.02 0.42 l-17.96 0 z M173.152 10 q0.6 0 1 0.42 t0.4 0.98 l0 2.92 q0 0.6 -0.4 1.02 t-1 0.42 l-19.76 0 q-0.56 0 -0.98 -0.42 t-0.42 -1.02 l0 -2.92 q0 -0.56 0.42 -0.98 t0.98 -0.42 l19.76 0 z">
        </path>
    </g>
</svg>