<svg xmlns="http://www.w3.org/2000/svg" width="300" height="100" viewBox="0 0 369.89473684210526 92.10526315789473"
    class="looka-1j8o68f">
    <defs id="SvgjsDefs1011"></defs>
    <g id="SvgjsG1012" transform="matrix(1.151315789473684,0,0,1.151315789473684,-11.51315789473684,-11.51315789473684)"
        fill="#111111">
        <path xmlns="http://www.w3.org/2000/svg"
            d="M50,10L10,50l40,40l40-40L50,10z M19.427,50L50,19.427l12.93,12.93l-4.714,4.714L50,28.857L28.857,50l8.213,8.216  l-4.714,4.714L19.427,50z M61.719,50L50,61.722L38.284,50L50,38.284L61.719,50z M37.07,67.644l4.714-4.714L50,71.143L71.146,50  l-8.216-8.216l4.714-4.714L80.573,50L50,80.573L37.07,67.644z">
        </path>
    </g>
    <g id="SvgjsG1013" transform="matrix(1.417627314584073,0,0,1.417627314584073,107.4068857972846,10.82372685415927)"
        fill="#111111">
        <path
            d="M21.12 11.04 q2.44 0.92 4.4 2.96 q4.2 4.24 4.2 10.82 t-4.2 10.86 q-1.96 2.04 -4.4 2.96 q-2.52 1.04 -5.16 1.04 l-11.32 0 q-0.56 0 -0.98 -0.42 t-0.42 -0.98 l0 -2.88 q0 -0.6 0.42 -1.02 t0.98 -0.42 l11.2 0 q3.56 0 5.78 -2.6 t2.22 -6.52 t-2.22 -6.52 t-5.78 -2.6 l-11.2 0 q-0.56 0 -0.98 -0.42 t-0.42 -1.02 l0 -2.88 q0 -0.56 0.42 -0.98 t0.98 -0.42 l11.32 0 q2.64 0 5.16 1.04 z M55.72 33.92 q0.6 0 1 0.42 t0.4 1.02 l0 2.92 q0 0.56 -0.4 0.98 t-1 0.42 l-19.76 0 q-0.56 0 -0.98 -0.42 t-0.42 -0.98 l0 -2.92 q0 -0.6 0.42 -1.02 t0.98 -0.42 l19.76 0 z M35.96 27.72 q-0.56 0 -0.98 -0.42 t-0.42 -0.98 l0 -3 q0 -0.56 0.42 -0.98 t0.98 -0.42 l17.96 0 q0.6 0 1.02 0.42 t0.42 0.98 l0 3 q0 0.56 -0.42 0.98 t-1.02 0.42 l-17.96 0 z M55.72 10 q0.6 0 1 0.42 t0.4 0.98 l0 2.92 q0 0.6 -0.4 1.02 t-1 0.42 l-19.76 0 q-0.56 0 -0.98 -0.42 t-0.42 -1.02 l0 -2.92 q0 -0.56 0.42 -0.98 t0.98 -0.42 l19.76 0 z M86.92 10.64 q0.44 0.6 0.16 1.32 l-10.96 27.08 q-0.16 0.4 -0.52 0.64 t-0.8 0.24 l-3.52 0 q-0.44 0 -0.8 -0.24 t-0.52 -0.64 l-10.96 -27.08 q-0.32 -0.68 0.12 -1.32 t1.16 -0.64 l13.36 0 q0.56 0 0.98 0.42 t0.42 1.02 l0 2.92 q0 0.6 -0.42 1.02 t-0.98 0.42 l-6.72 0 l6.12 15.4 l8.04 -20.32 q0.16 -0.4 0.52 -0.64 t0.8 -0.24 l3.36 0 q0.36 0 0.68 0.18 t0.48 0.46 z M91.96 20.24 q-0.56 0 -0.98 -0.42 t-0.42 -0.98 l0 -7.44 q0 -0.56 0.42 -0.98 t0.98 -0.42 l3.04 0 q0.6 0 1 0.42 t0.4 0.98 l0 7.44 q0 0.56 -0.4 0.98 t-1 0.42 l-3.04 0 z M113.67999999999999 10 q0.56 0 0.98 0.42 t0.42 0.98 l0 26.88 q0 0.56 -0.42 0.98 t-0.98 0.42 l-3.04 0 q-0.6 0 -1 -0.42 t-0.4 -0.98 l0 -10.56 l-12.84 0 l0 10.56 q0 0.56 -0.4 0.98 t-1 0.42 l-3.04 0 q-0.56 0 -0.98 -0.42 t-0.42 -0.98 l0 -14.96 q0 -0.56 0.42 -0.98 t0.98 -0.42 l17.28 0 l0 -10.52 q0 -0.56 0.4 -0.98 t1 -0.42 l3.04 0 z M126 21.88 q0.6 0 1 0.42 t0.4 1.02 l0 14.96 q0 0.56 -0.4 0.98 t-1 0.42 l-3.04 0 q-0.56 0 -0.98 -0.42 t-0.42 -0.98 l0 -14.96 q0 -0.6 0.42 -1.02 t0.98 -0.42 l3.04 0 z M126 10 q0.6 0 1 0.42 t0.4 0.98 l0 7.4 q0 0.6 -0.4 1.02 t-1 0.42 l-3.04 0 q-0.56 0 -0.98 -0.42 t-0.42 -1.02 l0 -7.4 q0 -0.56 0.42 -0.98 t0.98 -0.42 l3.04 0 z M159.27999999999997 37.4 q0.24 0.28 0.28 0.68 t-0.14 0.76 t-0.52 0.56 t-0.74 0.2 l-3.8 0 q-0.36 0 -0.66 -0.16 t-0.5 -0.44 l-9.56 -13.76 l-3.92 3.68 l0 9.28 q0 0.56 -0.42 0.98 t-0.98 0.42 l-3.04 0 q-0.56 0 -0.98 -0.42 t-0.42 -0.98 l0 -11.12 q0 -0.64 0.44 -1 l16.72 -15.68 q0.4 -0.4 0.96 -0.4 l4.32 0 q0.4 0 0.76 0.24 t0.52 0.64 t0.08 0.82 t-0.4 0.74 l-9.36 8.8 z M135.27999999999997 20.2 q-0.56 0 -0.98 -0.4 t-0.42 -1 l0 -7.4 q0 -0.56 0.42 -0.98 t0.98 -0.42 l3.04 0 q0.56 0 0.98 0.42 t0.42 0.98 l0 7.4 q0 0.6 -0.42 1 t-0.98 0.4 l-3.04 0 z M183.76 33.92 q0.6 0 1 0.42 t0.4 1.02 l0 2.92 q0 0.56 -0.4 0.98 t-1 0.42 l-19.76 0 q-0.56 0 -0.98 -0.42 t-0.42 -0.98 l0 -2.92 q0 -0.6 0.42 -1.02 t0.98 -0.42 l19.76 0 z M163.99999999999997 27.72 q-0.56 0 -0.98 -0.42 t-0.42 -0.98 l0 -3 q0 -0.56 0.42 -0.98 t0.98 -0.42 l17.96 0 q0.6 0 1.02 0.42 t0.42 0.98 l0 3 q0 0.56 -0.42 0.98 t-1.02 0.42 l-17.96 0 z M183.76 10 q0.6 0 1 0.42 t0.4 0.98 l0 2.92 q0 0.6 -0.4 1.02 t-1 0.42 l-19.76 0 q-0.56 0 -0.98 -0.42 t-0.42 -1.02 l0 -2.92 q0 -0.56 0.42 -0.98 t0.98 -0.42 l19.76 0 z">
        </path>
    </g>
</svg>